<?xml version="1.0" encoding="UTF-8"?>
<svg version="1.1" xmlns="http://www.w3.org/2000/svg" width="300" height="120">
<path d="M0 0 C4.78342331 4.08584074 4.78342331 4.08584074 5.30078125 7.61328125 C5.32719489 12.71111455 4.74634993 16.09968137 2 20.5625 C1.34 20.5625 0.68 20.5625 0 20.5625 C-0.26167969 21.31144531 -0.52335937 22.06039062 -0.79296875 22.83203125 C-3.85253343 29.75318242 -10.90920155 34.4345424 -16.75 39 C-17.30469971 39.43723389 -17.85939941 39.87446777 -18.4309082 40.32495117 C-21.19911367 42.43822239 -23.49890331 44.09512059 -27 44.5625 C-27 45.2225 -27 45.8825 -27 46.5625 C-28.98 47.0575 -28.98 47.0575 -31 47.5625 C-31 48.2225 -31 48.8825 -31 49.5625 C-32.4815116 50.77871073 -34.01233094 51.93510432 -35.5625 53.0625 C-42.18276849 58.21785801 -47.32688894 64.51683075 -50 72.5625 C-49.74664647 75.58269764 -49.74664647 75.58269764 -49 78.5625 C-48.896875 79.47 -48.79375 80.3775 -48.6875 81.3125 C-48.22245602 83.69299167 -48.22245602 83.69299167 -46.1875 84.75 C-45.465625 85.018125 -44.74375 85.28625 -44 85.5625 C-42.66666667 86.22916667 -41.33333333 86.89583333 -40 87.5625 C-40 88.2225 -40 88.8825 -40 89.5625 C-46.4268355 89.30847488 -50.88636589 88.82386176 -56 84.5625 C-56.721875 84.005625 -57.44375 83.44875 -58.1875 82.875 C-62.02423408 77.97985651 -63.5592109 71.77423101 -63.2890625 65.59765625 C-62.34076584 58.92113517 -59.50303345 53.23983007 -56 47.5625 C-55.34 47.5625 -54.68 47.5625 -54 47.5625 C-53.67 46.5725 -53.34 45.5825 -53 44.5625 C-52.34 44.5625 -51.68 44.5625 -51 44.5625 C-50.67 43.5725 -50.34 42.5825 -50 41.5625 C-49.34 41.5625 -48.68 41.5625 -48 41.5625 C-47.67 40.5725 -47.34 39.5825 -47 38.5625 C-44.93173546 36.76272629 -42.86780065 35.09052151 -40.6875 33.4375 C-40.06391602 32.95611572 -39.44033203 32.47473145 -38.79785156 31.97875977 C-33.68362711 28.04329536 -28.51708687 24.17606824 -23.328125 20.33984375 C-20.97049175 18.62163621 -20.97049175 18.62163621 -19 16.5625 C-18.62038456 12.29182627 -19.33403568 9.45636105 -21 5.5625 C-30.5116864 4.74591643 -37.29386126 5.68764463 -45 11.5625 C-47.05371019 13.62731133 -48.8902115 15.71255609 -50.66015625 18.0234375 C-51.10230469 18.53132813 -51.54445313 19.03921875 -52 19.5625 C-52.66 19.5625 -53.32 19.5625 -54 19.5625 C-54.33 20.8825 -54.66 22.2025 -55 23.5625 C-55.66 23.5625 -56.32 23.5625 -57 23.5625 C-57.18175781 24.119375 -57.36351562 24.67625 -57.55078125 25.25 C-57.80214844 26.013125 -58.05351563 26.77625 -58.3125 27.5625 C-58.58707031 28.39652344 -58.86164062 29.23054688 -59.14453125 30.08984375 C-59.85059752 32.13066542 -60.6619871 34.13471936 -61.5 36.125 C-64.00950322 42.61784166 -64.83095975 49.73066195 -66 56.5625 C-66.66 56.2325 -67.32 55.9025 -68 55.5625 C-67.16638969 41.76405571 -65.32197795 29.95244785 -59 17.5625 C-58.34 17.5625 -57.68 17.5625 -57 17.5625 C-56.773125 16.840625 -56.54625 16.11875 -56.3125 15.375 C-52.58105392 7.37904412 -43.32710021 1.18103444 -35.25 -1.8125 C-24.32422529 -5.48637161 -9.9802724 -6.84597198 0 0 Z " fill="#6B9229" transform="translate(75,12.4375)"/>
<path d="M0 0 C10.01834862 3.01834862 10.01834862 3.01834862 13 6 C13 6.66 13 7.32 13 8 C13.66 8 14.32 8 15 8 C19.37105286 15.37615171 20.13805818 22.54585349 19 31 C17.3129742 35.80584471 14.81040088 39.78439867 12 44 C11.34 44 10.68 44 10 44 C9.67 44.99 9.34 45.98 9 47 C8.34 47 7.68 47 7 47 C7 47.66 7 48.32 7 49 C5.36694336 50.43286133 5.36694336 50.43286133 3.08984375 52.08203125 C1.85137695 52.98598633 1.85137695 52.98598633 0.58789062 53.90820312 C-0.28673828 54.53662109 -1.16136719 55.16503906 -2.0625 55.8125 C-2.91005859 56.42931641 -3.75761719 57.04613281 -4.63085938 57.68164062 C-6.30025024 58.89468835 -7.97288478 60.10328623 -9.64892578 61.30712891 C-11.14365484 62.38339591 -12.63237 63.46810287 -14.11279297 64.56396484 C-18.78420206 68 -18.78420206 68 -21 68 C-21 68.66 -21 69.32 -21 70 C-21.763125 70.5775 -22.52625 71.155 -23.3125 71.75 C-26.39283031 74.32888119 -27.64302113 76.23061426 -29 80 C-29.17797389 83.18444653 -29.17797389 83.18444653 -28 86 C-24.86771202 88.52323198 -21.94914145 89.43583694 -18 90 C-18 90.66 -18 91.32 -18 92 C-27.34352741 92.46717637 -37.7633388 91.47490739 -45 85 C-47.24187309 81.49098126 -47.33109269 78.27080712 -46.66015625 74.17578125 C-44.2910004 66.36738002 -38.24101425 60.87658199 -32 56 C-31.30132812 55.44054687 -30.60265625 54.88109375 -29.8828125 54.3046875 C-28 53 -28 53 -26 53 C-26 52.34 -26 51.68 -26 51 C-24.25617577 49.72359257 -22.45159728 48.52985118 -20.625 47.375 C-7.46341025 39.06395912 -7.46341025 39.06395912 2 27 C2.66 27 3.32 27 4 27 C4.144375 26.21625 4.28875 25.4325 4.4375 24.625 C5 22 5 22 6 20 C6.45231534 14.74051932 6.29795023 9.83778997 4 5 C3.01 4.67 2.02 4.34 1 4 C1 3.34 1 2.68 1 2 C0.34 1.67 -0.32 1.34 -1 1 C-0.67 0.67 -0.34 0.34 0 0 Z " fill="#114D7E" transform="translate(83,19)"/>
<path d="M0 0 C4.78342331 4.08584074 4.78342331 4.08584074 5.30078125 7.61328125 C5.32719489 12.71111455 4.74634993 16.09968137 2 20.5625 C1.34 20.5625 0.68 20.5625 0 20.5625 C-0.39251953 21.68591797 -0.39251953 21.68591797 -0.79296875 22.83203125 C-3.85253343 29.75318242 -10.90920155 34.4345424 -16.75 39 C-17.30469971 39.43723389 -17.85939941 39.87446777 -18.4309082 40.32495117 C-21.19911367 42.43822239 -23.49890331 44.09512059 -27 44.5625 C-27 45.2225 -27 45.8825 -27 46.5625 C-28.98 47.0575 -28.98 47.0575 -31 47.5625 C-31 48.2225 -31 48.8825 -31 49.5625 C-32.4815116 50.77871073 -34.01233094 51.93510432 -35.5625 53.0625 C-42.21158821 58.2403006 -47.26805924 64.51255806 -50 72.5625 C-49.75109876 78.03832735 -47.32681803 82.69241575 -45 87.5625 C-50.62586863 85.79436986 -53.77840563 82.39489156 -57 77.5625 C-58.05184189 69.2792451 -55.49937232 63.48061004 -51 56.5625 C-42.58343588 46.05167345 -32.56690898 37.27060398 -21.62109375 29.4765625 C-12.94693256 23.48551933 -12.94693256 23.48551933 -8.62890625 14.34375 C-8.43725854 9.280031 -8.43725854 9.280031 -11.125 5.125 C-16.59147041 2.15409217 -21.71487384 1.2240175 -27.875 0.9375 C-28.56335938 0.89882812 -29.25171875 0.86015625 -29.9609375 0.8203125 C-31.64023246 0.72701834 -33.32007767 0.64371762 -35 0.5625 C-34.67 -0.4275 -34.34 -1.4175 -34 -2.4375 C-24.32345704 -6.64567101 -8.73192479 -5.98966742 0 0 Z " fill="#8AB841" transform="translate(75,12.4375)"/>
<path d="M0 0 C3.92949485 1.30983162 4.90768821 3.00496059 6.98046875 6.48046875 C9.28756706 12.18191859 8.85551089 18.43346734 6.9375 24.1875 C1.16190476 32.57142857 1.16190476 32.57142857 -2 36 C-2.66 36 -3.32 36 -4 36 C-4 36.66 -4 37.32 -4 38 C-5.88218555 39.60592929 -7.7662283 41.09111902 -9.75 42.5625 C-10.33620117 43.00577637 -10.92240234 43.44905273 -11.52636719 43.90576172 C-14.41007645 46.08210221 -17.31257236 48.23270852 -20.21875 50.37890625 C-32.23854964 58.67070438 -32.23854964 58.67070438 -41 70 C-41.43161795 72.52544915 -41.43161795 72.52544915 -41.3125 75.0625 C-41.30863281 75.89910156 -41.30476563 76.73570313 -41.30078125 77.59765625 C-40.98365957 80.13051122 -40.27224682 81.80524751 -39 84 C-43.14030433 83.75645269 -45.5031277 83.36725344 -48.875 80.875 C-51.47427272 77.3583369 -52 75.36463257 -52 71 C-48.592726 60.77817801 -41.6920119 53.99386654 -33 48 C-32.34 48 -31.68 48 -31 48 C-31 47.34 -31 46.68 -31 46 C-29.25617577 44.72359257 -27.45159728 43.52985118 -25.625 42.375 C-12.46341025 34.06395912 -12.46341025 34.06395912 -3 22 C-2.34 22 -1.68 22 -1 22 C-0.855625 21.21625 -0.71125 20.4325 -0.5625 19.625 C0 17 0 17 1 15 C1.34555498 9.91830907 1.02401636 4.99207975 0 0 Z " fill="#0C64A1" transform="translate(88,24)"/>
<path d="M0 0 C0.66 0 1.32 0 2 0 C2.38764818 13.9337985 0.68089696 22.22599348 -7 34 C-7.4021875 34.62261719 -7.804375 35.24523437 -8.21875 35.88671875 C-12.32741915 41.47744356 -19.35482243 45.83953047 -26.1875 47.0625 C-30.89672874 46.98529953 -33.05211923 46.57820785 -37 44 C-38.4375 40.75 -38.4375 40.75 -38 37 C-35.76114317 34.12525485 -32.93171424 32.13296713 -30 30 C-11.90499504 17.58553841 -11.90499504 17.58553841 0 0 Z " fill="#0B5084" transform="translate(104,58)"/>
<path d="M0 0 C3.00197464 1.80118478 4.45166366 2.90332732 6 6 C6.09649939 7.9981051 6.12980872 9.9995718 6.125 12 C6.12886719 13.60875 6.12886719 13.60875 6.1328125 15.25 C6 18 6 18 5 20 C4.34 20 3.68 20 3 20 C2.67 20.99 2.34 21.98 2 23 C-1.70405742 25.01077403 -4.82985098 25.42552541 -9 25 C-13.18521246 23.35874021 -15.68743847 21.85871219 -18 18 C-18.66910567 13.94633482 -18.61023896 10.06086288 -18 6 C-13.08229682 -0.60007532 -7.79503871 -0.84361891 0 0 Z M-12 7 C-12.80157397 10.05600074 -13.29112114 11.94905041 -13 15 C-11.06078239 18.19003883 -11.06078239 18.19003883 -8 20 C-4.75138118 20.07923461 -3.32145607 19.21148426 -0.625 17.4375 C1.1828594 14.7257109 1.21582821 14.00477234 0.9375 10.875 C0.41156058 6.78450476 0.41156058 6.78450476 -3 5 C-7.07490752 4.66042437 -8.53001271 4.68667514 -12 7 Z " fill="#779B3A" transform="translate(237,10)"/>
<path d="M0 0 C13.6125 -0.4125 13.6125 -0.4125 18 3 C18 3.66 18 4.32 18 5 C18.66 5 19.32 5 20 5 C21.59800954 9.79402863 21.73902979 14.15242551 19.875 18.8125 C17.35061712 21.75761336 15.72158007 22.75947331 12 24 C8.04 24 4.08 24 0 24 C0 16.08 0 8.16 0 0 Z M5 5 C5 9.62 5 14.24 5 19 C10.58500567 18.80101292 10.58500567 18.80101292 15 16 C15.7010685 10.57374801 15.7010685 10.57374801 13.375 6 C10.50785479 4.611943 10.50785479 4.611943 5 5 Z " fill="#799F3C" transform="translate(156,10)"/>
<path d="M0 0 C0.33 0 0.66 0 1 0 C1.43732847 12.99837394 -0.83745174 21.02056747 -8 32 C-8.4021875 32.62261719 -8.804375 33.24523437 -9.21875 33.88671875 C-13.36158472 39.52393314 -20.40335907 43.88773299 -27.3125 45 C-30.87704088 45 -32.96339502 44.84036665 -36 43 C-36.495 41.515 -36.495 41.515 -37 40 C-36.154375 39.78085938 -35.30875 39.56171875 -34.4375 39.3359375 C-22.51666085 36.0035211 -14.11265074 30.4074701 -7.59375 19.6875 C-4.287804 13.39813931 -2.08436438 6.77709535 0 0 Z " fill="#0665A3" transform="translate(105,60)"/>
<path d="M0 0 C1.98 0 3.96 0 6 0 C6 5.94 6 11.88 6 18 C7.32 18.33 8.64 18.66 10 19 C10.99 18.34 11.98 17.68 13 17 C13.38384509 14.06402461 13.603843 11.31972627 13.6875 8.375 C13.72166016 7.57320312 13.75582031 6.77140625 13.79101562 5.9453125 C13.87356878 3.96403682 13.93845916 1.98203963 14 0 C15.98 0 17.96 0 20 0 C20.08120751 2.89640118 20.14059421 5.79050912 20.1875 8.6875 C20.21263672 9.50412109 20.23777344 10.32074219 20.26367188 11.16210938 C20.32191481 15.95744409 20.12228027 19.10095732 17 23 C13.78144775 25.33067577 10.89509474 25.46741137 7 25 C1.29230769 21.87692308 1.29230769 21.87692308 0 18 C-0.08021999 16.59175107 -0.10765977 15.18002769 -0.09765625 13.76953125 C-0.09282227 12.56586914 -0.09282227 12.56586914 -0.08789062 11.33789062 C-0.07951172 10.50451172 -0.07113281 9.67113281 -0.0625 8.8125 C-0.05798828 7.96751953 -0.05347656 7.12253906 -0.04882812 6.25195312 C-0.03705403 4.16793845 -0.0191189 2.08396023 0 0 Z " fill="#719337" transform="translate(246,10)"/>
<path d="M0 0 C5.28 0 10.56 0 16 0 C16 1.65 16 3.3 16 5 C12.37 5 8.74 5 5 5 C5 6.32 5 7.64 5 9 C8.63 9 12.26 9 16 9 C16 10.65 16 12.3 16 14 C12.37 14 8.74 14 5 14 C5 15.65 5 17.3 5 19 C8.96 19 12.92 19 17 19 C17 20.65 17 22.3 17 24 C11.39 24 5.78 24 0 24 C0 16.08 0 8.16 0 0 Z " fill="#739738" transform="translate(136,10)"/>
<path d="M0 0 C1.65 0 3.3 0 5 0 C5.33 5.61 5.66 11.22 6 17 C7.32 17.66 8.64 18.32 10 19 C11.62814885 18.00735621 11.62814885 18.00735621 13 16 C13.37674518 13.20748417 13.60191941 10.61220799 13.6875 7.8125 C13.72166016 7.06291016 13.75582031 6.31332031 13.79101562 5.54101562 C13.87334294 3.69453162 13.93835281 1.84729006 14 0 C15.65 0 17.3 0 19 0 C19.13530844 3.06398451 19.2342407 6.12197126 19.3125 9.1875 C19.35439453 10.05181641 19.39628906 10.91613281 19.43945312 11.80664062 C19.52606045 16.32754274 19.50131364 18.33724637 16.6953125 22.046875 C13.28141136 24.5207164 11.21485019 25.07394474 7 25 C1.53164557 22.06329114 1.53164557 22.06329114 0 19 C-0.08342159 17.55151418 -0.10732861 16.09929131 -0.09765625 14.6484375 C-0.09443359 13.79765625 -0.09121094 12.946875 -0.08789062 12.0703125 C-0.07951172 11.18085938 -0.07113281 10.29140625 -0.0625 9.375 C-0.05798828 8.4778125 -0.05347656 7.580625 -0.04882812 6.65625 C-0.03702591 4.43743352 -0.02056155 2.21874982 0 0 Z " fill="#7AA03C" transform="translate(180,10)"/>
<path d="M0 0 C0.99 0.66 1.98 1.32 3 2 C2.67 2.99 2.34 3.98 2 5 C1.34 5 0.68 5 0 5 C-0.33 5.66 -0.66 6.32 -1 7 C-2.98 6.34 -4.96 5.68 -7 5 C-6.36260008 8.0825837 -6.36260008 8.0825837 -4.1875 8.921875 C-3.465625 9.19515625 -2.74375 9.4684375 -2 9.75 C0.18359375 10.76171875 0.18359375 10.76171875 2 12 C3.18664001 15.97873416 3.30996892 18.07009325 2 22 C-1.68719893 24.8444106 -4.38357622 25.57705297 -9 25 C-11.875 23.5 -11.875 23.5 -14 22 C-13.34 20.68 -12.68 19.36 -12 18 C-8.88772805 18 -6.05847848 18.45627049 -3 19 C-3.6657158 15.94138351 -3.6657158 15.94138351 -5.8125 14.8671875 C-6.534375 14.53976563 -7.25625 14.21234375 -8 13.875 C-11.94039735 12.05960265 -11.94039735 12.05960265 -13 11 C-13.35345775 7.2533478 -13.50023653 4.84822716 -11.5625 1.5625 C-7.84466258 -0.70447403 -4.25763793 -0.67432203 0 0 Z " fill="#769A3A" transform="translate(282,10)"/>
<path d="M0 0 C3.63 0 7.26 0 11 0 C11.33 1.32 11.66 2.64 12 4 C10.5625 5.75 10.5625 5.75 9 7 C8.67 6.67 8.34 6.34 8 6 C6.33382885 5.95936168 4.66611905 5.957279 3 6 C2.67 6.66 2.34 7.32 2 8 C2.62648438 8.14695312 3.25296875 8.29390625 3.8984375 8.4453125 C10.56495468 10.27492447 10.56495468 10.27492447 12.6875 13.8125 C13.05330915 17.54375331 12.67542046 19.64915908 11 23 C7.90215034 25.43402474 4.83130745 25.39094974 1 25 C-1.875 23.5 -1.875 23.5 -4 22 C-2.25 18.125 -2.25 18.125 0 17 C2.625 17.9375 2.625 17.9375 5 19 C5.33 18.01 5.66 17.02 6 16 C5.43410156 15.72285156 4.86820313 15.44570313 4.28515625 15.16015625 C3.55167969 14.79792969 2.81820312 14.43570312 2.0625 14.0625 C0.96615234 13.52302734 0.96615234 13.52302734 -0.15234375 12.97265625 C-2 12 -2 12 -3 11 C-3.14115161 8.32941149 -3.04247107 5.67567762 -3 3 C-2.01 2.67 -1.02 2.34 0 2 C0 1.34 0 0.68 0 0 Z " fill="#769B3A" transform="translate(120,10)"/>
<path d="M0 0 C1.65 0 3.3 0 5 0 C6 1 6 1 6.11352539 2.76586914 C6.10828857 3.51473389 6.10305176 4.26359863 6.09765625 5.03515625 C6.09282227 6.24848633 6.09282227 6.24848633 6.08789062 7.48632812 C6.07951172 8.33646484 6.07113281 9.18660156 6.0625 10.0625 C6.05798828 10.91650391 6.05347656 11.77050781 6.04882812 12.65039062 C6.03700373 14.76695663 6.01906769 16.88348685 6 19 C8.97 19 11.94 19 15 19 C15 20.65 15 22.3 15 24 C10.05 24 5.1 24 0 24 C0 16.08 0 8.16 0 0 Z " fill="#739638" transform="translate(203,10)"/>
<path d="M0 0 C1.32 0.66 2.64 1.32 4 2 C3.20335937 2.56267578 3.20335937 2.56267578 2.390625 3.13671875 C-1.72489891 6.11822056 -4.89225632 8.93602749 -8 13 C-8.66 13 -9.32 13 -10 13 C-10.33 14.32 -10.66 15.64 -11 17 C-11.66 17 -12.32 17 -13 17 C-13.18175781 17.556875 -13.36351562 18.11375 -13.55078125 18.6875 C-13.80214844 19.450625 -14.05351562 20.21375 -14.3125 21 C-14.58707031 21.83402344 -14.86164062 22.66804688 -15.14453125 23.52734375 C-15.85059752 25.56816542 -16.6619871 27.57221936 -17.5 29.5625 C-20.00950322 36.05534166 -20.83095975 43.16816195 -22 50 C-22.66 49.67 -23.32 49.34 -24 49 C-23.16638969 35.20155571 -21.32197795 23.38994785 -15 11 C-14.34 11.33 -13.68 11.66 -13 12 C-12.34 11.319375 -11.68 10.63875 -11 9.9375 C-7.50531766 6.43274653 -3.74869221 3.22778212 0 0 Z " fill="#658A26" transform="translate(31,19)"/>
<path d="M0 0 C2.475 0.495 2.475 0.495 5 1 C6.3125 3.0625 6.3125 3.0625 7 5 C7.66 3.35 8.32 1.7 9 0 C10.65 0 12.3 0 14 0 C14 4.62 14 9.24 14 14 C12.35 13.67 10.7 13.34 9 13 C6.76832815 13.36856864 6.76832815 13.36856864 5 14 C4.67 13.34 4.34 12.68 4 12 C3.67 12.66 3.34 13.32 3 14 C2.01 14 1.02 14 0 14 C0 9.38 0 4.76 0 0 Z " fill="#789D3B" transform="translate(225,70)"/>
<path d="M0 0 C1.65 0 3.3 0 5 0 C6.8125 2 6.8125 2 8 4 C8.33 2.68 8.66 1.36 9 0 C10.32 0 11.64 0 13 0 C13 4.29 13 8.58 13 13 C11.35 13 9.7 13 8 13 C6.1875 10.5 6.1875 10.5 5 8 C4.67 9.65 4.34 11.3 4 13 C2.68 13 1.36 13 0 13 C0 8.71 0 4.42 0 0 Z " fill="#7A9F3C" transform="translate(259,45)"/>
<path d="M0 0 C3.875 0.875 3.875 0.875 5 2 C5.33 1.34 5.66 0.68 6 0 C7.32 0 8.64 0 10 0 C10.33 0.66 10.66 1.32 11 2 C11.33 1.34 11.66 0.68 12 0 C13.32 0 14.64 0 16 0 C15.01 3.96 14.02 7.92 13 12 C11.68 12 10.36 12 9 12 C9 10.68 9 9.36 9 8 C8.01 8.495 8.01 8.495 7 9 C6.67 9.99 6.34 10.98 6 12 C5.01 12 4.02 12 3 12 C2.49166409 10.75336669 1.99368855 9.50250613 1.5 8.25 C1.2215625 7.55390625 0.943125 6.8578125 0.65625 6.140625 C0 4 0 4 0 0 Z " fill="#184568" transform="translate(117,96)"/>
<path d="M0 0 C2 2 2 2 2.3125 5.9375 C2.23081662 8.43791894 2.12109418 9.77205801 0.9375 12 C-2.14126742 13.58904125 -4.60155579 13.35773097 -8 13 C-10.4375 11.9375 -10.4375 11.9375 -12 10 C-12.46913089 5.62144505 -12.46943529 3.70415293 -10 0 C-6.25976024 -1.24674659 -3.83399823 -0.76679965 0 0 Z M-7 3 C-7.66 4.32 -8.32 5.64 -9 7 C-7.77190909 8.64555699 -7.77190909 8.64555699 -6 10 C-3.83700789 9.77242269 -3.83700789 9.77242269 -2 9 C-2 7.35 -2 5.7 -2 4 C-3.65 3.67 -5.3 3.34 -7 3 Z " fill="#789C3B" transform="translate(255,45)"/>
<path d="M0 0 C2.32749345 3.49124017 2.50299316 4.89222251 2 9 C0.4375 11.375 0.4375 11.375 -2 13 C-5.43737531 13.42213381 -7.82090489 13.60856522 -10.9375 12 C-12.66330659 8.75142288 -12.64820044 5.58372888 -12 2 C-8.84184661 -2.34246091 -4.67986406 -1.0567435 0 0 Z M-6 2 C-7.64555699 3.22809091 -7.64555699 3.22809091 -9 5 C-8.77242269 7.16299211 -8.77242269 7.16299211 -8 9 C-6.10820797 9.6814823 -6.10820797 9.6814823 -4 10 C-3.34 9.34 -2.68 8.68 -2 8 C-2.32041397 5.39719432 -2.32041397 5.39719432 -3 3 C-3.99 2.67 -4.98 2.34 -6 2 Z " fill="#749839" transform="translate(198,45)"/>
<path d="M0 0 C7 0 7 0 10 2 C10.1875 4.9375 10.1875 4.9375 10 8 C9.84188612 11.05270463 9.84188612 11.05270463 11 14 C9.35 14 7.7 14 6 14 C5.67 13.34 5.34 12.68 5 12 C4.67 12.66 4.34 13.32 4 14 C2.68 14 1.36 14 0 14 C0 9.38 0 4.76 0 0 Z M4 4 C4 4.66 4 5.32 4 6 C4.66 6 5.32 6 6 6 C6 5.34 6 4.68 6 4 C5.34 4 4.68 4 4 4 Z " fill="#789D3B" transform="translate(130,70)"/>
<path d="M0 0 C1.32 0 2.64 0 4 0 C4 1.32 4 2.64 4 4 C5.32 4 6.64 4 8 4 C8 2.68 8 1.36 8 0 C9.32 0 10.64 0 12 0 C12 4.29 12 8.58 12 13 C10.68 13 9.36 13 8 13 C8 11.35 8 9.7 8 8 C6.68 8 5.36 8 4 8 C4 9.65 4 11.3 4 13 C2.68 13 1.36 13 0 13 C0 8.71 0 4.42 0 0 Z " fill="#769B3A" transform="translate(154,45)"/>
<path d="M0 0 C3.3 0 6.6 0 10 0 C9.67 2.97 9.34 5.94 9 9 C7.35 9 5.7 9 4 9 C4 9.66 4 10.32 4 11 C5.98 11 7.96 11 10 11 C10 11.99 10 12.98 10 14 C6.7 14 3.4 14 0 14 C0 9.38 0 4.76 0 0 Z " fill="#617E2F" transform="translate(260,70)"/>
<path d="M0 0 C3.3 0 6.6 0 10 0 C9.67 2.97 9.34 5.94 9 9 C7.35 9 5.7 9 4 9 C4 9.66 4 10.32 4 11 C5.98 11 7.96 11 10 11 C10 11.99 10 12.98 10 14 C6.7 14 3.4 14 0 14 C0 9.38 0 4.76 0 0 Z " fill="#617E2F" transform="translate(188,70)"/>
<path d="M0 0 C7 0 7 0 10 2.0625 C12 5 12 5 12 8.6875 C11 12 11 12 8 14 C5.95703125 14.1953125 5.95703125 14.1953125 3.8125 14.125 C1.9253125 14.063125 1.9253125 14.063125 0 14 C0 9.38 0 4.76 0 0 Z M3 4 C3 6.31 3 8.62 3 11 C4.32 10.67 5.64 10.34 7 10 C8.01111093 6.95086772 8.01111093 6.95086772 7 4 C5.68 4 4.36 4 3 4 Z " fill="#789E3B" transform="translate(273,70)"/>
<path d="M0 0 C6.93359375 -0.09765625 6.93359375 -0.09765625 9 0 C10 1 10 1 10.09765625 3.50390625 C10.08605469 4.51324219 10.07445312 5.52257812 10.0625 6.5625 C10.05347656 7.57441406 10.04445313 8.58632812 10.03515625 9.62890625 C10.02355469 10.41136719 10.01195312 11.19382812 10 12 C8.68 12 7.36 12 6 12 C5.67 11.34 5.34 10.68 5 10 C4.67 10.66 4.34 11.32 4 12 C2.68 12 1.36 12 0 12 C0 8.04 0 4.08 0 0 Z " fill="#174364" transform="translate(273,96)"/>
<path d="M0 0 C1.258125 -0.04125 2.51625 -0.0825 3.8125 -0.125 C4.52019531 -0.14820312 5.22789062 -0.17140625 5.95703125 -0.1953125 C8 0 8 0 11 2 C11.4375 5.4375 11.4375 5.4375 11 9 C9.4375 10.9375 9.4375 10.9375 7 12 C3.25 12.1875 3.25 12.1875 0 12 C0 8.04 0 4.08 0 0 Z M4 3 C4 4.65 4 6.3 4 8 C4.99 7.67 5.98 7.34 7 7 C6.67 5.68 6.34 4.36 6 3 C5.34 3 4.68 3 4 3 Z " fill="#174263" transform="translate(171,96)"/>
<path d="M0 0 C1.32 0 2.64 0 4 0 C4.83764268 1.95649397 5.66999059 3.91525556 6.5 5.875 C6.9640625 6.96554688 7.428125 8.05609375 7.90625 9.1796875 C9 12 9 12 9 14 C7.68 14 6.36 14 5 14 C4.67 13.34 4.34 12.68 4 12 C2.68 12 1.36 12 0 12 C-0.33 12.66 -0.66 13.32 -1 14 C-2.32 14 -3.64 14 -5 14 C-3.45730076 9.27934033 -1.92205381 4.58335908 0 0 Z " fill="#719337" transform="translate(166,70)"/>
<path d="M0 0 C1.32 0 2.64 0 4 0 C4.33 2.97 4.66 5.94 5 9 C5.66 9 6.32 9 7 9 C7.33 6.03 7.66 3.06 8 0 C9.32 0 10.64 0 12 0 C12.45892351 7.95467422 12.45892351 7.95467422 10.875 11.5625 C8.19942641 13.61377309 6.28227017 13.34917768 3 13 C1 12 1 12 0 9 C-0.06740865 7.43881572 -0.08514456 5.8749748 -0.0625 4.3125 C-0.05347656 3.50425781 -0.04445312 2.69601563 -0.03515625 1.86328125 C-0.02355469 1.24839844 -0.01195312 0.63351563 0 0 Z " fill="#6A8A34" transform="translate(212,45)"/>
<path d="M0 0 C2.97 0 5.94 0 9 0 C9 2.64 9 5.28 9 8 C7.35 8 5.7 8 4 8 C4 8.66 4 9.32 4 10 C5.98 10 7.96 10 10 10 C10 10.99 10 11.98 10 13 C6.7 13 3.4 13 0 13 C0 8.71 0 4.42 0 0 Z " fill="#739738" transform="translate(129,45)"/>
<path d="M0 0 C0.928125 0.20625 1.85625 0.4125 2.8125 0.625 C2.1525 1.945 1.4925 3.265 0.8125 4.625 C1.328125 5.016875 1.84375 5.40875 2.375 5.8125 C3.8125 7.625 3.8125 7.625 3.625 10.25 C2.8125 12.625 2.8125 12.625 0.8125 13.625 C-1.18710012 13.664992 -3.18797242 13.66846799 -5.1875 13.625 C-5.5175 12.305 -5.8475 10.985 -6.1875 9.625 C-3.7125 10.12 -3.7125 10.12 -1.1875 10.625 C-1.1875 9.965 -1.1875 9.305 -1.1875 8.625 C-3.6625 7.635 -3.6625 7.635 -6.1875 6.625 C-6.375 4.25 -6.375 4.25 -6.1875 1.625 C-3.1875 -0.375 -3.1875 -0.375 0 0 Z " fill="#709337" transform="translate(280.1875,44.375)"/>
<path d="M0 0 C2.97 0 5.94 0 9 0 C8.67 1.32 8.34 2.64 8 4 C8.08816364 6.1421654 8.08816364 6.1421654 8.4375 8.25 C8.623125 9.4875 8.80875 10.725 9 12 C6.03 12 3.06 12 0 12 C0 8.04 0 4.08 0 0 Z " fill="#174364" transform="translate(191,96)"/>
<path d="M0 0 C2.97 0 5.94 0 9 0 C8.67 1.32 8.34 2.64 8 4 C8.08816364 6.1421654 8.08816364 6.1421654 8.4375 8.25 C8.623125 9.4875 8.80875 10.725 9 12 C6.03 12 3.06 12 0 12 C0 8.04 0 4.08 0 0 Z " fill="#174264" transform="translate(141,96)"/>
<path d="M0 0 C-0.33 0.99 -0.66 1.98 -1 3 C-3.0625 3.6875 -3.0625 3.6875 -5 4 C-4.360625 4.226875 -3.72125 4.45375 -3.0625 4.6875 C-1 6 -1 6 -0.125 8.5 C-0.08375 9.325 -0.0425 10.15 0 11 C-2 13 -2 13 -5.625 13.125 C-6.73875 13.08375 -7.8525 13.0425 -9 13 C-9 11.68 -9 10.36 -9 9 C-7.35 9.33 -5.7 9.66 -4 10 C-4 9.34 -4 8.68 -4 8 C-4.61875 7.9175 -5.2375 7.835 -5.875 7.75 C-8 7 -8 7 -9.3125 5.125 C-10 3 -10 3 -9 0 C-5.52176885 -1.15941038 -3.54104422 -0.70820884 0 0 Z " fill="#6E9036" transform="translate(184,45)"/>
<path d="M0 0 C1.32 0 2.64 0 4 0 C4.66 1.98 5.32 3.96 6 6 C6.99 4.02 7.98 2.04 9 0 C10.32 0 11.64 0 13 0 C12.28269264 3.23165844 11.18684926 6.18707922 9.9375 9.25 C9.57527344 10.14203125 9.21304688 11.0340625 8.83984375 11.953125 C8.56269531 12.62859375 8.28554687 13.3040625 8 14 C6.140625 13.76953125 6.140625 13.76953125 4 13 C2.734375 11.07421875 2.734375 11.07421875 1.75 8.6875 C1.41484375 7.90761719 1.0796875 7.12773438 0.734375 6.32421875 C0 4 0 4 0 0 Z " fill="#729538" transform="translate(148,70)"/>
<path d="M0 0 C7 0 7 0 10 2 C10.375 4.5 10.375 4.5 10 7 C7 9 7 9 4 9 C4 10.65 4 12.3 4 14 C2.68 14 1.36 14 0 14 C0 9.38 0 4.76 0 0 Z M4 4 C4 4.66 4 5.32 4 6 C4.66 6 5.32 6 6 6 C6 5.34 6 4.68 6 4 C5.34 4 4.68 4 4 4 Z " fill="#6F9136" transform="translate(118,70)"/>
<path d="M0 0 C2.64 0 5.28 0 8 0 C8.33 3.96 8.66 7.92 9 12 C6.03 12 3.06 12 0 12 C0 8.04 0 4.08 0 0 Z " fill="#164061" transform="translate(256,96)"/>
<path d="M0 0 C0 0.99 0 1.98 0 3 C-2.31 3.33 -4.62 3.66 -7 4 C-6.67 5.65 -6.34 7.3 -6 9 C-4.02 9 -2.04 9 0 9 C0 9.99 0 10.98 0 12 C-1 13 -1 13 -4.375 13.1875 C-8 13 -8 13 -11 11 C-11.64012343 7.96085541 -11.49196264 5.05799502 -11 2 C-7.97861788 -2.10907968 -4.59200188 -0.97138501 0 0 Z " fill="#729538" transform="translate(152,45)"/>
<path d="M0 0 C2.4375 0.375 2.4375 0.375 5 1 C5.33 1.66 5.66 2.32 6 3 C6.66 2.01 7.32 1.02 8 0 C9.32 0 10.64 0 12 0 C11.54965877 1.62723299 11.08944646 3.25173664 10.625 4.875 C10.36976563 5.77992187 10.11453125 6.68484375 9.8515625 7.6171875 C9 10 9 10 7 12 C6.01 12 5.02 12 4 12 C3.3291288 10.3767313 2.66342971 8.75132422 2 7.125 C1.62875 6.22007813 1.2575 5.31515625 0.875 4.3828125 C0 2 0 2 0 0 Z " fill="#184567" transform="translate(236,96)"/>
<path d="M0 0 C3.63 0 7.26 0 11 0 C11 1.32 11 2.64 11 4 C10.01 4 9.02 4 8 4 C8 7.3 8 10.6 8 14 C6.68 14 5.36 14 4 14 C4 10.7 4 7.4 4 4 C2.68 4 1.36 4 0 4 C0 2.68 0 1.36 0 0 Z " fill="#668532" transform="translate(247,70)"/>
<path d="M0 0 C3.63 0 7.26 0 11 0 C11 1.32 11 2.64 11 4 C10.01 4 9.02 4 8 4 C8 7.3 8 10.6 8 14 C6.68 14 5.36 14 4 14 C4 10.7 4 7.4 4 4 C2.68 4 1.36 4 0 4 C0 2.68 0 1.36 0 0 Z " fill="#668532" transform="translate(175,70)"/>
<path d="M0 0 C0 0.66 0 1.32 0 2 C-1.94140625 3.26171875 -1.94140625 3.26171875 -4.5625 4.6875 C-9.52015891 7.55846067 -13.15397905 10.80256597 -17 15 C-17.97420896 15.9840994 -18.95284794 16.96384963 -19.9375 17.9375 C-20.9584375 18.9584375 -20.9584375 18.9584375 -22 20 C-20.79362522 14.40680782 -19.46758954 11.81606607 -15 8 C-14.21625 7.31164062 -13.4325 6.62328125 -12.625 5.9140625 C-5.02808989 -0.52974518 -5.02808989 -0.52974518 0 0 Z " fill="#8AB841" transform="translate(39,13)"/>
<path d="M0 0 C3.63 0 7.26 0 11 0 C11 0.99 11 1.98 11 3 C9.68 3 8.36 3 7 3 C7 6.3 7 9.6 7 13 C5.68 13 4.36 13 3 13 C3 9.7 3 6.4 3 3 C2.01 3 1.02 3 0 3 C0 2.01 0 1.02 0 0 Z " fill="#638231" transform="translate(117,45)"/>
<path d="M0 0 C1.32 0 2.64 0 4 0 C4 3.63 4 7.26 4 11 C5.65 11 7.3 11 9 11 C9 11.99 9 12.98 9 14 C6.03 14 3.06 14 0 14 C0 9.38 0 4.76 0 0 Z " fill="#648331" transform="translate(207,70)"/>
<path d="M0 0 C1.65 0 3.3 0 5 0 C5 4.62 5 9.24 5 14 C3.68 14 2.36 14 1 14 C0.67 11.36 0.34 8.72 0 6 C-0.66 6.66 -1.32 7.32 -2 8 C-1.47731534 5.23723823 -0.89130413 2.6739124 0 0 Z " fill="#709237" transform="translate(234,70)"/>
<path d="M0 0 C1.32 0 2.64 0 4 0 C4 2.64 4 5.28 4 8 C5.32 8 6.64 8 8 8 C8 9.32 8 10.64 8 12 C5.36 12 2.72 12 0 12 C0 8.04 0 4.08 0 0 Z " fill="#174466" transform="translate(208,96)"/>
<path d="M0 0 C1.32 0 2.64 0 4 0 C4 3.3 4 6.6 4 10 C5.32 10 6.64 10 8 10 C8 10.99 8 11.98 8 13 C5.36 13 2.72 13 0 13 C0 8.71 0 4.42 0 0 Z " fill="#678732" transform="translate(202,45)"/>
<path d="M0 0 C1.32 0.33 2.64 0.66 4 1 C3.30157099 4.66675229 2.43827179 8.26265362 1.5 11.875 C0.39208087 16.25263168 -0.49045018 20.51596159 -1 25 C-1.66 24.67 -2.32 24.34 -3 24 C-2.50877547 15.86894139 -1.64733759 7.98079085 0 0 Z " fill="#688D2C" transform="translate(10,44)"/>
<path d="M0 0 C3.63 0 7.26 0 11 0 C11 0.99 11 1.98 11 3 C9.68 3 8.36 3 7 3 C7 6.3 7 9.6 7 13 C6.01 13 5.02 13 4 13 C4 9.7 4 6.4 4 3 C2.68 3 1.36 3 0 3 C0 2.01 0 1.02 0 0 Z " fill="#759939" transform="translate(225,45)"/>
<path d="M0 0 C2 2 2 2 2.125 5.125 C2.08375 6.07375 2.0425 7.0225 2 8 C1.34 7.67 0.68 7.34 0 7 C-0.66 7.66 -1.32 8.32 -2 9 C-2.33 7.35 -2.66 5.7 -3 4 C-3.78375 4 -4.5675 4 -5.375 4 C-6.91666667 4 -8.45833333 4 -10 4 C-10.99 4.495 -10.99 4.495 -12 5 C-11.1875 2.5625 -11.1875 2.5625 -10 0 C-6.25976024 -1.24674659 -3.83399823 -0.76679965 0 0 Z " fill="#6C8E35" transform="translate(255,45)"/>
<path d="M0 0 C1.32 0 2.64 0 4 0 C4 4.62 4 9.24 4 14 C2.68 14 1.36 14 0 14 C0 9.38 0 4.76 0 0 Z " fill="#5C792D" transform="translate(242,70)"/>
<path d="M0 0 C0.66 0.33 1.32 0.66 2 1 C2.34469404 6.63000273 1.7166373 10.14886197 -1 15 C-3.1875 15.9375 -3.1875 15.9375 -5 16 C-4.49228528 10.03435204 -2.61407872 5.36190101 0 0 Z " fill="#6A8F2D" transform="translate(16,30)"/>
<path d="M0 0 C0.99 0 1.98 0 3 0 C3 4.62 3 9.24 3 14 C1.68 14 0.36 14 -1 14 C-1.02685938 11.85423363 -1.04633088 9.70837355 -1.0625 7.5625 C-1.07410156 6.36753906 -1.08570313 5.17257813 -1.09765625 3.94140625 C-1 1 -1 1 0 0 Z " fill="#6D8F36" transform="translate(143,70)"/>
<path d="M0 0 C1.9375 0.5625 1.9375 0.5625 4 2 C5 5.375 5 5.375 5 9 C3.0625 11.4375 3.0625 11.4375 1 13 C0.34 12.34 -0.32 11.68 -1 11 C-0.96712417 8.27130593 -0.43602229 5.7033382 0 3 C-0.66 2.67 -1.32 2.34 -2 2 C-1.34 1.34 -0.68 0.68 0 0 Z " fill="#749839" transform="translate(280,71)"/>
<path d="M0 0 C1.32 0 2.64 0 4 0 C4 4.29 4 8.58 4 13 C2.68 13 1.36 13 0 13 C0 8.71 0 4.42 0 0 Z " fill="#5C792D" transform="translate(237,45)"/>
<path d="M0 0 C1.80859375 0.55859375 1.80859375 0.55859375 3.30859375 2.62109375 C3.47359375 3.26046875 3.63859375 3.89984375 3.80859375 4.55859375 C3.14859375 4.55859375 2.48859375 4.55859375 1.80859375 4.55859375 C1.47859375 3.89859375 1.14859375 3.23859375 0.80859375 2.55859375 C0.14859375 3.21859375 -0.51140625 3.87859375 -1.19140625 4.55859375 C-3.81640625 4.18359375 -3.81640625 4.18359375 -6.19140625 3.55859375 C-6.85140625 4.87859375 -7.51140625 6.19859375 -8.19140625 7.55859375 C-8.85140625 7.22859375 -9.51140625 6.89859375 -10.19140625 6.55859375 C-9.87890625 4.18359375 -9.87890625 4.18359375 -9.19140625 1.55859375 C-5.55044831 -0.86871154 -4.13925699 -0.61519232 0 0 Z " fill="#698933" transform="translate(196.19140625,44.44140625)"/>
<path d="M0 0 C0.99 0 1.98 0 3 0 C3 4.62 3 9.24 3 14 C2.01 14 1.02 14 0 14 C0 9.38 0 4.76 0 0 Z " fill="#7CA23D" transform="translate(218,70)"/>
<path d="M0 0 C2.31 0 4.62 0 7 0 C6.67 0.66 6.34 1.32 6 2 C5.01 2 4.02 2 3 2 C3 4.31 3 6.62 3 9 C3.99 9.33 4.98 9.66 6 10 C4.02 10 2.04 10 0 10 C0 6.7 0 3.4 0 0 Z " fill="#1B4E75" transform="translate(171,96)"/>
<path d="M0 0 C1.423125 0.495 1.423125 0.495 2.875 1 C5.77062452 2.10159191 5.77062452 2.10159191 8 2 C8.33 1.34 8.66 0.68 9 0 C9.433125 0.474375 9.86625 0.94875 10.3125 1.4375 C12.02309613 3.23686957 12.02309613 3.23686957 15 4 C15 4.66 15 5.32 15 6 C4.060808 5.38400666 4.060808 5.38400666 0 2 C0 1.34 0 0.68 0 0 Z " fill="#739A34" transform="translate(20,96)"/>
<path d="M0 0 C0.99 0 1.98 0 3 0 C3 3.96 3 7.92 3 12 C2.01 12 1.02 12 0 12 C0 8.04 0 4.08 0 0 Z " fill="#19486C" transform="translate(225,96)"/>
<path d="M0 0 C0.66 0.33 1.32 0.66 2 1 C1.071875 1.86625 0.14375 2.7325 -0.8125 3.625 C-3.69067512 6.47615 -5.25178689 9.3370773 -7 13 C-7.99 13.66 -8.98 14.32 -10 15 C-8.80126197 9.44221461 -7.38897437 6.85373359 -3 3 C-2.401875 2.401875 -1.80375 1.80375 -1.1875 1.1875 C-0.795625 0.795625 -0.40375 0.40375 0 0 Z " fill="#80AA3D" transform="translate(27,18)"/>
<path d="M0 0 C4.455 0.99 4.455 0.99 9 2 C9 2.99 9 3.98 9 5 C6.03 5 3.06 5 0 5 C0 3.35 0 1.7 0 0 Z " fill="#7DA33D" transform="translate(261,79)"/>
<path d="M0 0 C4.455 0.99 4.455 0.99 9 2 C9 2.99 9 3.98 9 5 C6.03 5 3.06 5 0 5 C0 3.35 0 1.7 0 0 Z " fill="#7DA33D" transform="translate(189,79)"/>
<path d="M0 0 C-0.61512818 5.00890086 -1.2717552 10.00632136 -2 15 C-2.66 14.67 -3.32 14.34 -4 14 C-3.88655624 11.8535247 -3.75893655 9.70779408 -3.625 7.5625 C-3.52058594 5.77005859 -3.52058594 5.77005859 -3.4140625 3.94140625 C-3.27742187 2.97074219 -3.14078125 2.00007813 -3 1 C-1 0 -1 0 0 0 Z " fill="#506D22" transform="translate(11,54)"/>
<path d="M0 0 C0 3 0 3 -1.2421875 4.5 C-1.78101562 4.995 -2.31984375 5.49 -2.875 6 C-5.00080434 7.97176054 -6.35557907 9.5333686 -8 12 C-8.25 9.73828125 -8.25 9.73828125 -8 7 C-6.25 4.98046875 -6.25 4.98046875 -4 3.1875 C-3.2575 2.58292969 -2.515 1.97835937 -1.75 1.35546875 C-1.1725 0.90816406 -0.595 0.46085937 0 0 Z " fill="#094370" transform="translate(74,88)"/>
<path d="M0 0 C1.32 0 2.64 0 4 0 C3.38722388 2.96175123 2.74627478 4.38058783 1 7 C0.01 7 -0.98 7 -2 7 C-1.34 4.69 -0.68 2.38 0 0 Z " fill="#648331" transform="translate(157,70)"/>
<path d="M0 0 C0.33 0 0.66 0 1 0 C0.75 3.375 0.75 3.375 0 7 C-2.0625 8.4375 -2.0625 8.4375 -4 9 C-4.33 7.68 -4.66 6.36 -5 5 C-4.01 4.67 -3.02 4.34 -2 4 C-0.79117904 1.99983534 -0.79117904 1.99983534 0 0 Z " fill="#658432" transform="translate(284,75)"/>
<path d="M0 0 C1.24727575 2.4945515 0.88934597 3.39371494 0.25 6.0625 C0.09015625 6.77535156 -0.0696875 7.48820312 -0.234375 8.22265625 C-0.61335937 9.10244141 -0.61335937 9.10244141 -1 10 C-1.99 10.33 -2.98 10.66 -4 11 C-3.54177532 7.53058454 -3.10868317 4.32604951 -2 1 C-1.34 0.67 -0.68 0.34 0 0 Z " fill="#7EA93A" transform="translate(15,35)"/>
<path d="M0 0 C2.31 0 4.62 0 7 0 C7.66 1.32 8.32 2.64 9 4 C8.34 4 7.68 4 7 4 C6.67 3.34 6.34 2.68 6 2 C5.34 2.66 4.68 3.32 4 4 C1.525 3.01 1.525 3.01 -1 2 C-0.67 1.34 -0.34 0.68 0 0 Z " fill="#6F9136" transform="translate(191,45)"/>
<path d="M0 0 C0.33 0 0.66 0 1 0 C1 3.3 1 6.6 1 10 C0.34 10 -0.32 10 -1 10 C-2.15837626 5.94568308 -1.83691257 3.78187881 0 0 Z " fill="#5F7D2F" transform="translate(236,74)"/>
<path d="M0 0 C0.99 0.495 0.99 0.495 2 1 C2 1.66 2 2.32 2 3 C2.66 3 3.32 3 4 3 C4 4.32 4 5.64 4 7 C2.68 6.67 1.36 6.34 0 6 C0 4.02 0 2.04 0 0 Z " fill="#80A83F" transform="translate(196,46)"/>
<path d="M0 0 C2.31 0.33 4.62 0.66 7 1 C7 1.66 7 2.32 7 3 C4.03 3 1.06 3 -2 3 C-1.34 2.67 -0.68 2.34 0 2 C0 1.34 0 0.68 0 0 Z " fill="#0B3B61" transform="translate(58,108)"/>
<path d="M0 0 C1.37562854 1.28965176 2.70766393 2.62689293 4 4 C4 4.66 4 5.32 4 6 C2.35 6 0.7 6 -1 6 C-1.33 5.01 -1.66 4.02 -2 3 C-1.34 2.67 -0.68 2.34 0 2 C0 1.34 0 0.68 0 0 Z " fill="#6B8C34" transform="translate(137,78)"/>
<path d="M0 0 C2.0625 0.4375 2.0625 0.4375 4 1 C4.33 2.98 4.66 4.96 5 7 C4.67 6.34 4.34 5.68 4 5 C3.01 4.67 2.02 4.34 1 4 C1 3.34 1 2.68 1 2 C0.34 1.67 -0.32 1.34 -1 1 C-0.67 0.67 -0.34 0.34 0 0 Z " fill="#0A4570" transform="translate(83,19)"/>
<path d="M0 0 C0 0.66 0 1.32 0 2 C-2.3125 3.125 -2.3125 3.125 -5 4 C-5.99 3.34 -6.98 2.68 -8 2 C-4.77208445 -0.1519437 -3.71599191 -0.20086443 0 0 Z " fill="#80AA3C" transform="translate(39,13)"/>
<path d="M0 0 C1.98 0 3.96 0 6 0 C6 0.99 6 1.98 6 3 C3.69 2.67 1.38 2.34 -1 2 C-0.67 1.34 -0.34 0.68 0 0 Z " fill="#7CA23D" transform="translate(146,45)"/>
</svg>
